<svg width="24" height="24" viewBox="0 0 24 24" fill="none" xmlns="http://www.w3.org/2000/svg">
<path d="M9.69501 13.5953L11.4018 14.0264C11.044 15.4282 10.3988 16.4985 9.46628 17.2375C8.53959 17.9707 7.40469 18.3372 6.06158 18.3372C4.67155 18.3372 3.53959 18.0557 2.66569 17.4927C1.79765 16.9238 1.1349 16.1026 0.677419 15.0293C0.225806 13.956 0 12.8035 0 11.5718C0 10.2287 0.255132 9.05865 0.765396 8.06158C1.28152 7.05865 2.01173 6.29912 2.95601 5.78299C3.90616 5.261 4.95015 5 6.08798 5C7.3783 5 8.46334 5.32845 9.34311 5.98534C10.2229 6.64223 10.8358 7.56598 11.1818 8.7566L9.50147 9.15249C9.20235 8.21408 8.76833 7.53079 8.19941 7.10264C7.6305 6.67449 6.91496 6.46041 6.05279 6.46041C5.06158 6.46041 4.23167 6.69795 3.56305 7.17302C2.90029 7.64809 2.43402 8.28739 2.16422 9.09091C1.89443 9.88856 1.75953 10.7126 1.75953 11.563C1.75953 12.6598 1.91789 13.6188 2.2346 14.4399C2.55718 15.2551 3.05572 15.8651 3.73021 16.2698C4.40469 16.6745 5.1349 16.8768 5.92082 16.8768C6.87683 16.8768 7.68622 16.6012 8.34897 16.0499C9.01173 15.4985 9.46041 14.6804 9.69501 13.5953Z" fill="white"/>
<path d="M17.1994 18.1173L12.2023 5.21994H14.0499L17.4018 14.5894C17.6716 15.3402 17.8974 16.044 18.0792 16.7009C18.2786 15.9971 18.5103 15.2933 18.7742 14.5894L22.2581 5.21994H24L18.9501 18.1173H17.1994Z" fill="white"/>
</svg>
