<svg width="24" height="24" viewBox="0 0 24 24" fill="none" xmlns="http://www.w3.org/2000/svg">
<path d="M7.50024 12.6439L15.9621 20.0624C16.0596 20.1484 16.1777 20.2076 16.305 20.2341C16.4322 20.2607 16.5642 20.2537 16.6879 20.2139C16.8117 20.1742 16.9229 20.1029 17.0108 20.0071C17.0987 19.9113 17.1602 19.7944 17.1893 19.6677L21.0002 3.11425C21.004 3.09765 21.0031 3.08035 20.9977 3.06421C20.9924 3.04807 20.9827 3.03369 20.9698 3.02261C20.9569 3.01153 20.9412 3.00417 20.9245 3.00132C20.9077 2.99848 20.8905 3.00024 20.8746 3.00644L1.87524 10.4418C1.7573 10.4871 1.65726 10.5696 1.59014 10.6767C1.52303 10.7838 1.49246 10.9097 1.50302 11.0357C1.51359 11.1616 1.56472 11.2807 1.64874 11.3751C1.73276 11.4695 1.84513 11.5341 1.96899 11.5593L7.50024 12.6439Z" stroke="white" stroke-width="1.5" stroke-linecap="round" stroke-linejoin="round"/>
<path d="M7.5 12.6439L20.9447 3.0083" stroke="white" stroke-width="1.5" stroke-linecap="round" stroke-linejoin="round"/>
<path d="M11.6597 16.2919L8.79 19.2694C8.68631 19.3769 8.55285 19.4511 8.40673 19.4823C8.26061 19.5135 8.10849 19.5004 7.96989 19.4446C7.83128 19.3888 7.7125 19.2929 7.62878 19.1691C7.54507 19.0453 7.50022 18.8994 7.5 18.75V12.644" stroke="white" stroke-width="1.5" stroke-linecap="round" stroke-linejoin="round"/>
</svg>
