<svg width="32" height="32" viewBox="0 0 32 32" fill="none" xmlns="http://www.w3.org/2000/svg">
<path d="M14.2891 17.9844L15.8047 18.3672C15.487 19.612 14.9141 20.5625 14.0859 21.2188C13.263 21.8698 12.2552 22.1953 11.0625 22.1953C9.82812 22.1953 8.82292 21.9453 8.04688 21.4453C7.27604 20.9401 6.6875 20.2109 6.28125 19.2578C5.88021 18.3047 5.67969 17.2812 5.67969 16.1875C5.67969 14.9948 5.90625 13.9557 6.35938 13.0703C6.81771 12.1797 7.46615 11.5052 8.30469 11.0469C9.14844 10.5833 10.0755 10.3516 11.0859 10.3516C12.2318 10.3516 13.1953 10.6432 13.9766 11.2266C14.7578 11.8099 15.3021 12.6302 15.6094 13.6875L14.1172 14.0391C13.8516 13.2057 13.4661 12.599 12.9609 12.2188C12.4557 11.8385 11.8203 11.6484 11.0547 11.6484C10.1745 11.6484 9.4375 11.8594 8.84375 12.2812C8.25521 12.7031 7.84115 13.2708 7.60156 13.9844C7.36198 14.6927 7.24219 15.4245 7.24219 16.1797C7.24219 17.1536 7.38281 18.0052 7.66406 18.7344C7.95052 19.4583 8.39323 20 8.99219 20.3594C9.59115 20.7188 10.2396 20.8984 10.9375 20.8984C11.7865 20.8984 12.5052 20.6536 13.0938 20.1641C13.6823 19.6745 14.0807 18.9479 14.2891 17.9844ZM20.9531 22L16.5156 10.5469H18.1562L21.1328 18.8672C21.3724 19.5339 21.5729 20.1589 21.7344 20.7422C21.9115 20.1172 22.1172 19.4922 22.3516 18.8672L25.4453 10.5469H26.9922L22.5078 22H20.9531Z" fill="white"/>
</svg>
