<svg width="32" height="32" viewBox="0 0 32 32" fill="none" xmlns="http://www.w3.org/2000/svg">
<path d="M11.4993 16.6439L19.9611 24.0624C20.0586 24.1484 20.1768 24.2076 20.304 24.2341C20.4312 24.2607 20.5632 24.2537 20.687 24.2139C20.8107 24.1742 20.922 24.1029 21.0099 24.0071C21.0978 23.9113 21.1593 23.7944 21.1883 23.6677L24.9993 7.11425C25.003 7.09765 25.0021 7.08035 24.9968 7.06421C24.9914 7.04807 24.9818 7.03369 24.9688 7.02261C24.9559 7.01153 24.9403 7.00417 24.9235 7.00132C24.9067 6.99848 24.8895 7.00024 24.8736 7.00644L5.87427 14.4418C5.75632 14.4871 5.65628 14.5696 5.58916 14.6767C5.52205 14.7838 5.49148 14.9097 5.50205 15.0357C5.51261 15.1616 5.56374 15.2807 5.64776 15.3751C5.73178 15.4695 5.84415 15.5341 5.96802 15.5593L11.4993 16.6439Z" stroke="white" stroke-width="1.5" stroke-linecap="round" stroke-linejoin="round"/>
<path d="M11.5 16.6439L24.9447 7.0083" stroke="white" stroke-width="1.5" stroke-linecap="round" stroke-linejoin="round"/>
<path d="M15.6597 20.2919L12.79 23.2694C12.6863 23.3769 12.5528 23.4511 12.4067 23.4823C12.2606 23.5135 12.1085 23.5004 11.9699 23.4446C11.8313 23.3888 11.7125 23.2929 11.6288 23.1691C11.5451 23.0453 11.5002 22.8994 11.5 22.75V16.644" stroke="white" stroke-width="1.5" stroke-linecap="round" stroke-linejoin="round"/>
</svg>
