<svg preserveAspectRatio="none" width="100%" height="100%" overflow="visible" style="display: block;" viewBox="0 0 96 24" fill="none" xmlns="http://www.w3.org/2000/svg">
<path id="Vector" d="M6.87155 14.2212C7.32689 13.6464 7.46145 12.5482 6.79488 12.2303C5.867 11.7872 4.74666 12.1581 3.84694 12.6012C2.84709 13.0941 2.14609 13.8872 1.29019 14.6274C0.94282 14.9276 0.329449 14.6306 0.136988 14.2998C-1.18207 12.0313 7.41294 7.95489 9.27809 11.1402C10.5768 13.3574 8.43001 15.4847 6.8027 16.7595C5.68862 17.6313 2.29005 19.8645 3.71707 21.3095C5.42418 23.0386 10.0307 20.0989 10.6535 18.2429C11.2762 16.387 11.1573 14.6049 12.4247 13.0395C13.8314 11.3008 15.8249 10.1849 18.1141 10.7276C18.8119 10.893 19.4065 11.3072 19.9526 11.951C20.0825 11.1803 20.6677 10.6618 21.4297 10.8657C21.6769 10.9315 21.9962 11.0519 22.1245 11.1932C22.7269 11.8563 20.3876 20.1856 22.1292 20.9643C23.3246 21.4989 23.4764 19.3909 24.6734 19.4551C25.5997 19.5049 25.257 20.7684 25.969 21.0205C27.0439 21.401 27.9186 18.259 28.1173 17.4241L29.1047 13.2803C29.402 12.0313 30.272 10.8673 31.5034 10.5285C32.3108 10.3053 33.3326 10.4547 33.9084 11.0037C34.7878 11.8418 34.6516 13.0443 34.4983 14.1634C34.2996 15.6228 33.6408 20.1085 34.7361 20.884C35.8314 21.6595 37.72 19.3042 37.8014 18.3007C37.9657 16.3083 38.227 14.478 39.4929 12.8485C41.164 10.6987 44.4906 9.60695 46.6311 11.7503C46.8721 11.1209 47.2821 10.7982 47.9298 10.9154C48.1865 10.962 48.5417 11.0728 48.7013 11.1884C48.8609 11.304 48.889 11.8225 48.864 12.0505L48.2772 17.4611C48.1786 18.365 48.2428 21.4475 49.5243 20.9418C49.7277 20.8615 50.1111 20.6127 50.2441 20.3847C52.8008 15.9856 51.718 10.5253 55.4155 10.6329C58.0098 10.7083 57.6906 14.181 57.4496 16.1831C58.3055 16.106 61.5132 16.6487 61.6133 15.6131C61.7244 14.4636 61.8872 13.0299 62.1015 11.8258C62.2017 11.2638 62.7853 10.9845 63.1984 10.9427C63.6115 10.901 64.3657 11.1338 64.4924 11.5785L63.8806 16.7097C63.7664 17.6618 63.6772 20.4601 64.5644 20.9579C65.6269 21.5535 67.4325 19.3491 67.5483 18.3104C67.7298 16.7049 67.7674 15.1989 68.5372 13.7989C69.9111 11.3024 72.5351 10.0774 75.2781 10.803C76.9132 11.2365 78.0711 12.4776 78.6062 14.173C79.6859 13.9948 80.7029 13.6833 81.4963 13.0251C81.7059 9.273 83.0062 0.360859 87.6519 0.00925359C89.2917 -0.11437 90.545 1.01269 90.7438 2.66957C91.2069 6.5581 87.5799 10.5526 84.8776 12.8902L83.6775 13.9274C83.3395 15.7079 83.266 20.3253 85.1405 21.1794C85.8712 21.5118 86.6849 21.4299 87.2982 20.9771C88.586 20.0251 89.2792 18.3618 89.0914 16.7964C87.7192 16.0803 85.6678 15.1347 85.8086 13.4955C85.8775 12.6991 86.3234 12.1003 87.0291 11.7342C87.9132 11.2767 88.8755 11.3232 89.7048 11.9301C90.7328 12.6847 91.2664 13.8647 91.365 15.2439C92.1004 15.4253 92.8796 15.2776 93.5931 14.9693L95.4395 14.173C95.7352 14.3046 96.0263 14.767 95.9981 15.0335C95.8338 16.5283 92.8233 17.1608 91.4229 17.2331C91.1115 19.2464 90.362 21.226 88.7487 22.4349C87.4469 23.4095 85.9182 23.7418 84.3441 23.167C81.26 22.04 81.1692 17.9475 81.2224 15.1524L78.8769 16.0466C78.9943 20.0427 76.4094 23.615 72.5914 23.2939C70.8405 23.1462 69.1819 22.1395 68.2165 20.3526C67.6375 21.2452 67.0805 21.9806 66.2668 22.5634C64.904 23.5411 62.9715 23.2971 62.1375 21.7574C61.5085 20.5966 61.4991 19.2319 61.4944 17.9299C60.0674 18.0278 58.7937 18.0198 57.3636 17.8994L57.2384 22.109C57.2243 22.5794 56.4951 22.915 56.1399 22.9278C55.7315 22.9423 54.8976 22.7062 54.8553 22.1861C54.763 21.0847 54.8756 20.0572 54.9601 18.959L55.3732 13.6335C55.3904 13.4184 55.1964 12.9127 55.0587 12.6735C54.5752 12.8131 54.3311 13.2627 54.2138 13.7315C53.5362 16.4608 52.7664 20.3157 50.859 22.2856C49.8717 23.3051 48.4071 23.4881 47.3227 22.6067C46.639 22.0512 46.4152 21.1409 46.1883 20.1904C44.8786 22.5505 42.3203 24.156 39.9936 22.5794C39.2848 22.0994 38.7606 21.3448 38.2442 20.64C37.6543 21.6322 36.861 22.4767 35.8236 22.9326C34.2933 23.6037 32.6566 22.8218 32.123 21.189C31.8007 20.2017 31.6959 19.1051 31.8007 17.9941L32.2826 12.8886C32.2951 12.7521 32.1121 12.3764 31.9979 12.309C31.3031 11.9012 30.7132 14.1714 30.6021 14.7044C30.0545 17.2989 29.2111 21.4443 27.0361 22.8475C25.8876 23.5877 24.675 22.9567 24.0272 22.0849C23.0915 23.0546 21.6801 23.6326 20.4784 22.6661C19.8806 22.1861 19.5599 21.3303 19.3142 20.5308C18.0061 22.2631 16.4774 23.6294 14.2946 23.1044C12.8159 22.748 11.8521 21.5776 11.1902 20.1342C9.25932 22.8122 6.07198 24.5494 2.98635 23.8413C2.09915 23.6374 1.34495 22.9744 1.05392 22.3177C-0.063296 19.8019 2.58108 17.7228 4.42276 16.3886C5.31465 15.7432 6.15804 15.1267 6.87468 14.2244L6.87155 14.2212ZM83.7776 11.5914C86.2608 9.73378 89.0914 5.85649 88.7331 2.81246C88.5406 2.40306 88.2872 1.9182 87.9961 1.82668C87.6018 1.70306 87.1308 1.93586 86.7412 2.17347C84.7978 4.41315 84.0155 8.55053 83.7776 11.5914ZM16.5775 20.8985C17.8512 20.367 18.7509 19.1918 19.1233 17.8608C19.4582 16.6631 19.7336 15.268 19.5192 14.0558C19.3393 13.0315 18.2627 12.5514 17.5727 12.431C16.59 12.2576 15.7435 12.484 15.0097 13.176C13.3839 14.7092 12.7283 17.2829 13.4856 19.3973C13.977 20.77 15.1896 21.478 16.576 20.9001L16.5775 20.8985ZM43.6441 20.7395C45.1603 19.8741 45.9348 18.3072 46.121 16.6342L46.3463 14.6145C46.4136 14.0108 46.0929 13.359 45.6188 12.9817C44.367 11.9847 42.652 12.2255 41.6037 13.481C39.8152 15.6228 39.3959 19.6205 41.4128 20.7845C42.1279 21.1971 42.9165 21.1569 43.6456 20.7411L43.6441 20.7395ZM76.5596 16.4079C74.4253 15.7191 72.4882 14.9661 73.0452 12.4969C71.9155 12.6542 71.1863 13.3975 70.6919 14.287C69.6012 16.2505 69.4948 20.0909 72.0062 21.0333C73.1281 21.454 74.2892 21.2035 75.1701 20.4184C76.2451 19.4615 76.7458 17.8962 76.558 16.4079H76.5596ZM76.3358 14.4058C76.5877 13.9723 75.7741 12.9207 75.3657 13.4377C75.0934 13.7813 76.0088 14.5358 76.3358 14.4058ZM88.9944 14.9613C89.2307 14.3833 88.9662 13.7058 88.5469 13.4345C88.4311 13.359 88.0665 13.3494 87.9382 13.3959C87.8099 13.4425 87.7692 13.8824 87.8365 14.0221C88.0039 14.3705 88.478 14.7446 88.9944 14.9613Z" fill="var(--fill-0, white)"/>
</svg>
