<svg width="31" height="32" viewBox="0 0 31 32" fill="none" xmlns="http://www.w3.org/2000/svg">
<path fill-rule="evenodd" clip-rule="evenodd" d="M15.4698 0C20.4909 0 24.3155 4.18478 24.8413 9.19819C24.8695 9.46683 24.8836 9.60115 24.9369 9.69054C24.9864 9.7736 25.0482 9.83052 25.1351 9.87305C25.2286 9.91883 25.3571 9.92168 25.6141 9.92739C27.2301 9.96326 28.2171 10.0899 28.9532 10.541C29.8524 11.0922 30.516 11.9565 30.8155 12.9678C31.1575 14.122 30.7651 15.5844 29.9816 18.5088L28.4015 24.4072C27.6731 27.1254 27.3086 28.4847 26.5333 29.4951C25.8492 30.3866 24.9426 31.0826 23.9044 31.5127C22.7277 32.0001 21.3203 32 18.506 32H12.4337C9.61987 32 8.21281 31.9999 7.03625 31.5127C5.9979 31.0826 5.09058 30.3867 4.40637 29.4951C3.63106 28.4847 3.26655 27.1255 2.5382 24.4072L0.958123 18.5088C0.174544 15.5844 -0.217767 14.122 0.124139 12.9678C0.423751 11.9564 1.08803 11.0922 1.98742 10.541C2.72332 10.0901 3.70956 9.96334 5.32462 9.92741C5.58165 9.92169 5.71016 9.91884 5.80363 9.87305C5.89047 9.83052 5.95228 9.7736 6.0018 9.69055C6.05511 9.60116 6.0692 9.46684 6.09738 9.1982C6.6233 4.18484 10.4489 0.000121334 15.4698 0ZM15.4698 3.73438C12.8545 3.7345 10.3938 5.91091 9.87273 9.11462C9.83232 9.36308 9.81211 9.48731 9.85621 9.60504C9.89256 9.70209 9.97432 9.79823 10.0643 9.84968C10.1734 9.91211 10.3114 9.91211 10.5873 9.91211H20.3534C20.6293 9.91211 20.7673 9.91211 20.8764 9.84968C20.9663 9.79822 21.0481 9.70208 21.0845 9.60503C21.1285 9.4873 21.1083 9.36307 21.0679 9.11463C20.5468 5.91081 18.0853 3.73438 15.4698 3.73438Z" fill="#0DC267"/>
<path d="M10.1348 24.9082L11.3803 17.4354H13.398L12.1525 24.9082H10.1348ZM12.6009 16.576C12.2854 16.576 12.0404 16.4971 11.866 16.3394C11.7 16.1733 11.617 15.9533 11.617 15.6793C11.617 15.3389 11.7249 15.069 11.9408 14.8697C12.1567 14.6622 12.4431 14.5584 12.8001 14.5584C13.1157 14.5584 13.3565 14.6414 13.5225 14.8075C13.6969 14.9652 13.7841 15.177 13.7841 15.4427C13.7841 15.7748 13.6761 16.0488 13.4602 16.2647C13.2527 16.4722 12.9662 16.576 12.6009 16.576ZM13.4048 24.9082L14.3513 19.2289C14.4178 18.8552 14.4717 18.5024 14.5132 18.1702C14.5548 17.8298 14.5755 17.5849 14.5755 17.4354H16.369C16.369 17.6098 16.3565 17.7924 16.3316 17.9834C16.315 18.1661 16.2901 18.357 16.2569 18.5563H16.5558C16.7468 18.1827 16.9959 17.8713 17.3031 17.6222C17.6103 17.3731 18.0379 17.2486 18.5859 17.2486C19.1173 17.2486 19.5532 17.369 19.8937 17.6098C20.2424 17.8506 20.4832 18.1827 20.616 18.6061C20.7572 19.0213 20.7821 19.507 20.6908 20.0633L19.8812 24.9082H17.8636L18.6233 20.3498C18.7146 19.835 18.6939 19.4406 18.561 19.1666C18.4282 18.8926 18.1915 18.7556 17.8511 18.7556C17.5356 18.7556 17.2533 18.8718 17.0042 19.1043C16.7551 19.3368 16.5475 19.6482 16.3815 20.0384C16.2237 20.4287 16.1033 20.8563 16.0203 21.3213L15.4224 24.9082H13.4048Z" fill="#111111"/>
</svg>
