<svg preserveAspectRatio="none" width="100%" height="100%" overflow="visible" style="display: block;" viewBox="0 0 14.001 12.5" fill="none" xmlns="http://www.w3.org/2000/svg">
<path id="Vector" d="M4.49951 6.92929L10.1408 11.8749C10.2057 11.9322 10.2845 11.9717 10.3693 11.9894C10.4542 12.0071 10.5421 12.0025 10.6246 11.976C10.7071 11.9494 10.7813 11.9019 10.8399 11.8381C10.8985 11.7742 10.9395 11.6963 10.9589 11.6118L13.4995 0.576168C13.502 0.565102 13.5014 0.55357 13.4978 0.542807C13.4943 0.532045 13.4878 0.522457 13.4792 0.515072C13.4706 0.507686 13.4602 0.502781 13.449 0.500883C13.4378 0.498984 13.4263 0.500163 13.4158 0.504293L0.749512 5.46117C0.67088 5.49143 0.604187 5.54638 0.559443 5.61778C0.5147 5.68917 0.49432 5.77315 0.501364 5.85711C0.508407 5.94107 0.542494 6.02048 0.598507 6.08342C0.65452 6.14635 0.729437 6.18943 0.812012 6.20617L4.49951 6.92929Z" stroke="var(--stroke-0, white)" stroke-linecap="round" stroke-linejoin="round"/>
</svg>
