<svg preserveAspectRatio="none" width="100%" height="100%" overflow="visible" style="display: block;" viewBox="0 0 21.0015 18.75" fill="none" xmlns="http://www.w3.org/2000/svg">
<path id="Vector" d="M6.74927 10.3939L15.2111 17.8124C15.3086 17.8984 15.4268 17.9576 15.554 17.9841C15.6812 18.0107 15.8132 18.0037 15.937 17.9639C16.0607 17.9242 16.172 17.8529 16.2599 17.7571C16.3478 17.6613 16.4093 17.5444 16.4383 17.4177L20.2493 0.864252C20.253 0.847653 20.2521 0.830355 20.2468 0.814211C20.2414 0.798067 20.2318 0.783685 20.2188 0.772607C20.2059 0.761529 20.1903 0.754172 20.1735 0.751324C20.1567 0.748476 20.1395 0.750244 20.1236 0.756439L1.12427 8.19175C1.00632 8.23715 0.906281 8.31958 0.839165 8.42666C0.77205 8.53375 0.74148 8.65972 0.752046 8.78566C0.762611 8.9116 0.813741 9.03071 0.897761 9.12512C0.98178 9.21953 1.09416 9.28414 1.21802 9.30925L6.74927 10.3939Z" stroke="var(--stroke-0, white)" stroke-width="1.5" stroke-linecap="round" stroke-linejoin="round"/>
</svg>
